<svg xmlns="http://www.w3.org/2000/svg" xmlns:xlink="http://www.w3.org/1999/xlink" width="500" zoomAndPan="magnify" viewBox="0 0 375 374.999991" height="500" preserveAspectRatio="xMidYMid meet" version="1.0"><defs><g/><clipPath id="4e0310a938"><path d="M 187.5 0 C 83.945312 0 0 83.945312 0 187.5 C 0 291.054688 83.945312 375 187.5 375 C 291.054688 375 375 291.054688 375 187.5 C 375 83.945312 291.054688 0 187.5 0 Z M 187.5 0 " clip-rule="nonzero"/></clipPath></defs><g clip-path="url(#4e0310a938)"><rect x="-37.5" width="450" fill="#bfdbfe" y="-37.499999" height="449.999989" fill-opacity="1"/></g><path stroke-linecap="butt" transform="matrix(2.40558, 0, 0, 2.40558, 37.500002, 11.952069)" fill="none" stroke-linejoin="miter" d="M 30.402943 87.076626 C 37.825463 87.076626 43.944049 84.148863 48.646657 78.653826 L 42.622253 71.534962 C 39.523988 74.858939 35.652781 77.181014 30.781295 77.181014 C 21.736569 77.181014 15.863181 69.683797 15.863181 57.220912 C 15.863181 44.926906 22.358496 37.504385 31.008631 37.504385 C 35.350748 37.504385 38.674726 39.506566 41.545655 42.301175 L 47.570059 35.031294 C 43.849867 31.160087 38.051175 27.685093 30.781295 27.685093 C 16.316229 27.685093 4.173239 38.732 4.173239 57.617127 C 4.173239 76.70848 15.937877 87.076626 30.402943 87.076626 Z M 69.301757 87.076626 C 80.595485 87.076626 86.54357 80.977525 86.54357 73.384503 C 86.54357 65.340056 80.199271 62.488612 74.476899 60.317554 C 69.925308 58.617405 65.657886 57.46611 65.657886 54.293149 C 65.657886 51.820058 67.526913 50.100424 71.39812 50.100424 C 74.647401 50.100424 77.64986 51.649556 80.746502 53.820615 L 85.845323 46.946949 C 82.219314 44.22866 77.422524 41.602929 71.078226 41.602929 C 61.33363 41.602929 54.987708 47.097965 54.987708 54.897214 C 54.987708 62.092398 61.33363 65.416375 66.828666 67.512738 C 71.39812 69.287583 75.875016 70.760395 75.875016 74.008053 C 75.875016 76.70848 73.947531 78.57913 69.605413 78.57913 C 65.581566 78.57913 61.880861 76.878982 58.009653 73.857037 L 52.816649 80.977525 C 57.084071 84.527215 63.504689 87.076626 69.301757 87.076626 Z M 107.588389 87.076626 C 118.880493 87.076626 124.828577 80.977525 124.828577 73.384503 C 124.828577 65.340056 118.484279 62.488612 112.761907 60.317554 C 108.210315 58.617405 103.942893 57.46611 103.942893 54.293149 C 103.942893 51.820058 105.81192 50.100424 109.683128 50.100424 C 112.932409 50.100424 115.934868 51.649556 119.031509 53.820615 L 124.130331 46.946949 C 120.504322 44.22866 115.707532 41.602929 109.363233 41.602929 C 99.618638 41.602929 93.272716 47.097965 93.272716 54.897214 C 93.272716 62.092398 99.618638 65.416375 105.113674 67.512738 C 109.683128 69.287583 114.160023 70.760395 114.160023 74.008053 C 114.160023 76.70848 112.232539 78.57913 107.890421 78.57913 C 103.868197 78.57913 100.165868 76.878982 96.294661 73.857037 L 91.101657 80.977525 C 95.369078 84.527215 101.789697 87.076626 107.588389 87.076626 Z M 107.588389 87.076626 " stroke="#ffffff" stroke-width="2.900861" stroke-opacity="1" stroke-miterlimit="4"/><g fill="#ffffff" fill-opacity="1"><g transform="translate(37.520644, 272.962043)"><g><path d="M 29.78125 -24.15625 L 29.78125 -32.28125 C 32.84375 -32.734375 35.859375 -33.296875 38.359375 -33.96875 C 39.234375 -34.171875 40.5625 -34.53125 42.296875 -34.9375 L 38.109375 -40.5625 C 35.546875 -39.375 30.34375 -38.203125 25.234375 -37.484375 C 19.609375 -36.671875 11.703125 -36.578125 7.8125 -36.671875 L 9.390625 -30.75 C 12.828125 -30.84375 18.1875 -31 23.09375 -31.40625 L 23.09375 -24.15625 L 8.6875 -24.15625 C 7.09375 -24.15625 5.359375 -24.3125 3.984375 -24.46875 L 3.984375 -17.875 C 5.3125 -17.984375 7.203125 -18.078125 8.78125 -18.078125 L 22.828125 -18.078125 C 21.859375 -10.515625 17.78125 -5.0625 10.015625 -1.484375 L 16.5 2.90625 C 25.125 -2.25 28.8125 -9.5 29.578125 -18.078125 L 42.796875 -18.078125 C 44.1875 -18.078125 45.921875 -17.984375 47.296875 -17.875 L 47.296875 -24.46875 C 46.171875 -24.359375 43.71875 -24.15625 42.65625 -24.15625 Z M 29.78125 -24.15625 "/></g></g></g><g fill="#ffffff" fill-opacity="1"><g transform="translate(88.588101, 272.962043)"><g><path d="M 4.703125 -15.625 C 6.59375 -15.78125 10.015625 -15.890625 12.921875 -15.890625 L 40.359375 -15.890625 C 42.5 -15.890625 45.109375 -15.6875 46.328125 -15.625 L 46.328125 -23.65625 C 45 -23.546875 42.703125 -23.34375 40.359375 -23.34375 L 12.921875 -23.34375 C 10.265625 -23.34375 6.53125 -23.5 4.703125 -23.65625 Z M 4.703125 -15.625 "/></g></g></g><g fill="#ffffff" fill-opacity="1"><g transform="translate(139.655558, 272.962043)"><g><path d="M 44.390625 -18.796875 C 39.6875 -21.09375 29.875 -24.71875 23.03125 -26.71875 L 23.03125 -34.21875 C 23.03125 -36.375 23.296875 -38.609375 23.5 -40.40625 L 15.53125 -40.40625 C 15.890625 -38.609375 16.03125 -36.0625 16.03125 -34.21875 L 16.03125 -4.90625 C 16.03125 -2.859375 15.828125 0.203125 15.53125 2.203125 L 23.5 2.203125 C 23.296875 0.15625 23.03125 -3.421875 23.03125 -4.90625 L 23.03125 -19.359375 C 28.546875 -17.46875 36.21875 -14.5 41.46875 -11.75 Z M 44.390625 -18.796875 "/></g></g></g><g fill="#ffffff" fill-opacity="1"><g transform="translate(190.723015, 272.962043)"><g><path d="M 15.78125 -40.453125 L 12.046875 -34.828125 C 15.421875 -32.953125 20.734375 -29.46875 23.59375 -27.484375 L 27.421875 -33.15625 C 24.765625 -34.984375 19.15625 -38.5625 15.78125 -40.453125 Z M 6.28125 -4.1875 L 10.109375 2.546875 C 14.65625 1.734375 21.96875 -0.8125 27.171875 -3.78125 C 35.546875 -8.578125 42.75 -15.0625 47.5 -22.109375 L 43.5625 -29.0625 C 39.484375 -21.765625 32.390625 -14.765625 23.703125 -9.90625 C 18.125 -6.890625 12 -5.15625 6.28125 -4.1875 Z M 7.921875 -28.8125 L 4.1875 -23.140625 C 7.65625 -21.34375 12.921875 -17.875 15.828125 -15.890625 L 19.5625 -21.609375 C 16.953125 -23.4375 11.34375 -26.96875 7.921875 -28.8125 Z M 7.921875 -28.8125 "/></g></g></g><g fill="#ffffff" fill-opacity="1"><g transform="translate(241.790472, 272.962043)"><g><path d="M 4.703125 -15.625 C 6.59375 -15.78125 10.015625 -15.890625 12.921875 -15.890625 L 40.359375 -15.890625 C 42.5 -15.890625 45.109375 -15.6875 46.328125 -15.625 L 46.328125 -23.65625 C 45 -23.546875 42.703125 -23.34375 40.359375 -23.34375 L 12.921875 -23.34375 C 10.265625 -23.34375 6.53125 -23.5 4.703125 -23.65625 Z M 4.703125 -15.625 "/></g></g></g><g fill="#ffffff" fill-opacity="1"><g transform="translate(292.857929, 272.962043)"><g><path d="M 44.390625 -18.796875 C 39.6875 -21.09375 29.875 -24.71875 23.03125 -26.71875 L 23.03125 -34.21875 C 23.03125 -36.375 23.296875 -38.609375 23.5 -40.40625 L 15.53125 -40.40625 C 15.890625 -38.609375 16.03125 -36.0625 16.03125 -34.21875 L 16.03125 -4.90625 C 16.03125 -2.859375 15.828125 0.203125 15.53125 2.203125 L 23.5 2.203125 C 23.296875 0.15625 23.03125 -3.421875 23.03125 -4.90625 L 23.03125 -19.359375 C 28.546875 -17.46875 36.21875 -14.5 41.46875 -11.75 Z M 44.390625 -18.796875 "/></g></g></g></svg>